<?xml version="1.0" encoding="utf-8"?>
<svg version="1.1" xmlns:xlink="http://www.w3.org/1999/xlink" width="12px" height="12px" viewBox="222 10066  12 12" xmlns="http://www.w3.org/2000/svg">
  <path d="M 228 10066  C 231.36 10066  234 10068.64  234 10072  C 234 10075.36  231.36 10078  228 10078  C 224.64 10078  222 10075.36  222 10072  C 222 10068.64  224.64 10066  228 10066  Z " fill-rule="nonzero" fill="#ffffff" stroke="none" />
  <path d="M 228 10066.5  C 231.08 10066.5  233.5 10068.92  233.5 10072  C 233.5 10075.08  231.08 10077.5  228 10077.5  C 224.92 10077.5  222.5 10075.08  222.5 10072  C 222.5 10068.92  224.92 10066.5  228 10066.5  Z " stroke-width="1" stroke="#797979" fill="none" />
  <path d="M 228 10075  C 226.32 10075  225 10073.68  225 10072  C 225 10070.32  226.32 10069  228 10069  C 229.68 10069  231 10070.32  231 10072  C 231 10073.68  229.68 10075  228 10075  " fill-rule="nonzero" fill="#797979" stroke="none" />
</svg>