<?xml version="1.0" encoding="utf-8"?>
<svg version="1.1" xmlns:xlink="http://www.w3.org/1999/xlink" width="12px" height="12px" viewBox="220 9303  12 12" xmlns="http://www.w3.org/2000/svg">
  <path d="M 226 9303  C 229.36 9303  232 9305.64  232 9309  C 232 9312.36  229.36 9315  226 9315  C 222.64 9315  220 9312.36  220 9309  C 220 9305.64  222.64 9303  226 9303  Z " fill-rule="nonzero" fill="#f0f0f0" stroke="none" />
  <path d="M 226 9303.5  C 229.08 9303.5  231.5 9305.92  231.5 9309  C 231.5 9312.08  229.08 9314.5  226 9314.5  C 222.92 9314.5  220.5 9312.08  220.5 9309  C 220.5 9305.92  222.92 9303.5  226 9303.5  Z " stroke-width="1" stroke="#797979" fill="none" />
  <path d="M 226 9312  C 224.32 9312  223 9310.68  223 9309  C 223 9307.32  224.32 9306  226 9306  C 227.68 9306  229 9307.32  229 9309  C 229 9310.68  227.68 9312  226 9312  " fill-rule="nonzero" fill="#797979" stroke="none" />
</svg>