<?xml version="1.0" encoding="utf-8"?>
<svg version="1.1" xmlns:xlink="http://www.w3.org/1999/xlink" width="12px" height="12px" viewBox="365 6206  12 12" xmlns="http://www.w3.org/2000/svg">
  <path d="M 371 6206  C 374.36 6206  377 6208.64  377 6212  C 377 6215.36  374.36 6218  371 6218  C 367.64 6218  365 6215.36  365 6212  C 365 6208.64  367.64 6206  371 6206  Z " fill-rule="nonzero" fill="#ffffff" stroke="none" />
  <path d="M 371 6206.5  C 374.08 6206.5  376.5 6208.92  376.5 6212  C 376.5 6215.08  374.08 6217.5  371 6217.5  C 367.92 6217.5  365.5 6215.08  365.5 6212  C 365.5 6208.92  367.92 6206.5  371 6206.5  Z " stroke-width="1" stroke="#797979" fill="none" />
  <path d="M 371 6215  C 369.32 6215  368 6213.68  368 6212  C 368 6210.32  369.32 6209  371 6209  C 372.68 6209  374 6210.32  374 6212  C 374 6213.68  372.68 6215  371 6215  " fill-rule="nonzero" fill="#797979" stroke="none" />
</svg>