<?xml version="1.0" encoding="utf-8"?>
<svg version="1.1" xmlns:xlink="http://www.w3.org/1999/xlink" width="12px" height="12px" viewBox="488 6206  12 12" xmlns="http://www.w3.org/2000/svg">
  <path d="M 494 6206  C 497.36 6206  500 6208.64  500 6212  C 500 6215.36  497.36 6218  494 6218  C 490.64 6218  488 6215.36  488 6212  C 488 6208.64  490.64 6206  494 6206  Z " fill-rule="nonzero" fill="#f0f0f0" stroke="none" />
  <path d="M 494 6206.5  C 497.08 6206.5  499.5 6208.92  499.5 6212  C 499.5 6215.08  497.08 6217.5  494 6217.5  C 490.92 6217.5  488.5 6215.08  488.5 6212  C 488.5 6208.92  490.92 6206.5  494 6206.5  Z " stroke-width="1" stroke="#797979" fill="none" />
  <path d="M 494 6215  C 492.32 6215  491 6213.68  491 6212  C 491 6210.32  492.32 6209  494 6209  C 495.68 6209  497 6210.32  497 6212  C 497 6213.68  495.68 6215  494 6215  " fill-rule="nonzero" fill="#797979" stroke="none" />
</svg>