<?xml version="1.0" encoding="utf-8"?>
<svg version="1.1" xmlns:xlink="http://www.w3.org/1999/xlink" width="12px" height="12px" viewBox="1447 476  12 12" xmlns="http://www.w3.org/2000/svg">
  <path d="M 1453 476  C 1456.36 476  1459 478.64  1459 482  C 1459 485.36  1456.36 488  1453 488  C 1449.64 488  1447 485.36  1447 482  C 1447 478.64  1449.64 476  1453 476  Z " fill-rule="nonzero" fill="#f0f0f0" stroke="none" />
  <path d="M 1453 476.5  C 1456.08 476.5  1458.5 478.92  1458.5 482  C 1458.5 485.08  1456.08 487.5  1453 487.5  C 1449.92 487.5  1447.5 485.08  1447.5 482  C 1447.5 478.92  1449.92 476.5  1453 476.5  Z " stroke-width="1" stroke="#797979" fill="none" />
  <path d="M 1453 485  C 1451.32 485  1450 483.68  1450 482  C 1450 480.32  1451.32 479  1453 479  C 1454.68 479  1456 480.32  1456 482  C 1456 483.68  1454.68 485  1453 485  " fill-rule="nonzero" fill="#797979" stroke="none" />
</svg>