<?xml version="1.0" encoding="utf-8"?>
<svg version="1.1" xmlns:xlink="http://www.w3.org/1999/xlink" width="12px" height="12px" viewBox="1641 476  12 12" xmlns="http://www.w3.org/2000/svg">
  <path d="M 1647 476  C 1650.36 476  1653 478.64  1653 482  C 1653 485.36  1650.36 488  1647 488  C 1643.64 488  1641 485.36  1641 482  C 1641 478.64  1643.64 476  1647 476  Z " fill-rule="nonzero" fill="#f0f0f0" stroke="none" />
  <path d="M 1647 476.5  C 1650.08 476.5  1652.5 478.92  1652.5 482  C 1652.5 485.08  1650.08 487.5  1647 487.5  C 1643.92 487.5  1641.5 485.08  1641.5 482  C 1641.5 478.92  1643.92 476.5  1647 476.5  Z " stroke-width="1" stroke="#797979" fill="none" />
  <path d="M 1647 485  C 1645.32 485  1644 483.68  1644 482  C 1644 480.32  1645.32 479  1647 479  C 1648.68 479  1650 480.32  1650 482  C 1650 483.68  1648.68 485  1647 485  " fill-rule="nonzero" fill="#797979" stroke="none" />
</svg>