<?xml version="1.0" encoding="utf-8"?>
<svg version="1.1" xmlns:xlink="http://www.w3.org/1999/xlink" width="10px" height="10px" xmlns="http://www.w3.org/2000/svg">
  <g transform="matrix(1 0 0 1 -256 -7494 )">
    <path d="M 261 7494  C 263.8 7494  266 7496.2  266 7499  C 266 7501.8  263.8 7504  261 7504  C 258.2 7504  256 7501.8  256 7499  C 256 7496.2  258.2 7494  261 7494  Z " fill-rule="nonzero" fill="#ffffff" stroke="none" />
    <path d="M 261 7494.5  C 263.52 7494.5  265.5 7496.48  265.5 7499  C 265.5 7501.52  263.52 7503.5  261 7503.5  C 258.48 7503.5  256.5 7501.52  256.5 7499  C 256.5 7496.48  258.48 7494.5  261 7494.5  Z " stroke-width="1" stroke="#797979" fill="none" />
  </g>
</svg>