<?xml version="1.0" encoding="utf-8"?>
<svg version="1.1" xmlns:xlink="http://www.w3.org/1999/xlink" width="7px" height="7px" xmlns="http://www.w3.org/2000/svg">
  <g transform="matrix(1 0 0 1 -288 -7495 )">
    <path d="M 291.5 7495  C 293.46 7495  295 7496.54  295 7498.5  C 295 7500.46  293.46 7502  291.5 7502  C 289.54 7502  288 7500.46  288 7498.5  C 288 7496.54  289.54 7495  291.5 7495  Z " fill-rule="nonzero" fill="#ffffff" stroke="none" />
    <path d="M 291.5 7495.5  C 293.18 7495.5  294.5 7496.82  294.5 7498.5  C 294.5 7500.18  293.18 7501.5  291.5 7501.5  C 289.82 7501.5  288.5 7500.18  288.5 7498.5  C 288.5 7496.82  289.82 7495.5  291.5 7495.5  Z " stroke-width="1" stroke="#797979" fill="none" />
  </g>
</svg>