<?xml version="1.0" encoding="utf-8"?>
<svg version="1.1" xmlns:xlink="http://www.w3.org/1999/xlink" width="12px" height="12px" viewBox="1473 7342  12 12" xmlns="http://www.w3.org/2000/svg">
  <path d="M 1479 7342  C 1482.36 7342  1485 7344.64  1485 7348  C 1485 7351.36  1482.36 7354  1479 7354  C 1475.64 7354  1473 7351.36  1473 7348  C 1473 7344.64  1475.64 7342  1479 7342  Z " fill-rule="nonzero" fill="#ffffff" stroke="none" />
  <path d="M 1479 7342.5  C 1482.08 7342.5  1484.5 7344.92  1484.5 7348  C 1484.5 7351.08  1482.08 7353.5  1479 7353.5  C 1475.92 7353.5  1473.5 7351.08  1473.5 7348  C 1473.5 7344.92  1475.92 7342.5  1479 7342.5  Z " stroke-width="1" stroke="#797979" fill="none" />
  <path d="M 1479 7351  C 1477.32 7351  1476 7349.68  1476 7348  C 1476 7346.32  1477.32 7345  1479 7345  C 1480.68 7345  1482 7346.32  1482 7348  C 1482 7349.68  1480.68 7351  1479 7351  " fill-rule="nonzero" fill="#797979" stroke="none" />
</svg>