<?xml version="1.0" encoding="utf-8"?>
<svg version="1.1" xmlns:xlink="http://www.w3.org/1999/xlink" width="12px" height="12px" viewBox="1551 7342  12 12" xmlns="http://www.w3.org/2000/svg">
  <path d="M 1557 7342  C 1560.36 7342  1563 7344.64  1563 7348  C 1563 7351.36  1560.36 7354  1557 7354  C 1553.64 7354  1551 7351.36  1551 7348  C 1551 7344.64  1553.64 7342  1557 7342  Z " fill-rule="nonzero" fill="#f0f0f0" stroke="none" />
  <path d="M 1557 7342.5  C 1560.08 7342.5  1562.5 7344.92  1562.5 7348  C 1562.5 7351.08  1560.08 7353.5  1557 7353.5  C 1553.92 7353.5  1551.5 7351.08  1551.5 7348  C 1551.5 7344.92  1553.92 7342.5  1557 7342.5  Z " stroke-width="1" stroke="#797979" fill="none" />
  <path d="M 1557 7351  C 1555.32 7351  1554 7349.68  1554 7348  C 1554 7346.32  1555.32 7345  1557 7345  C 1558.68 7345  1560 7346.32  1560 7348  C 1560 7349.68  1558.68 7351  1557 7351  " fill-rule="nonzero" fill="#797979" stroke="none" />
</svg>