<?xml version="1.0" encoding="utf-8"?>
<svg version="1.1" xmlns:xlink="http://www.w3.org/1999/xlink" width="12px" height="12px" viewBox="1398 7380  12 12" xmlns="http://www.w3.org/2000/svg">
  <path d="M 1404 7380  C 1407.36 7380  1410 7382.64  1410 7386  C 1410 7389.36  1407.36 7392  1404 7392  C 1400.64 7392  1398 7389.36  1398 7386  C 1398 7382.64  1400.64 7380  1404 7380  Z " fill-rule="nonzero" fill="#f0f0f0" stroke="none" />
  <path d="M 1404 7380.5  C 1407.08 7380.5  1409.5 7382.92  1409.5 7386  C 1409.5 7389.08  1407.08 7391.5  1404 7391.5  C 1400.92 7391.5  1398.5 7389.08  1398.5 7386  C 1398.5 7382.92  1400.92 7380.5  1404 7380.5  Z " stroke-width="1" stroke="#797979" fill="none" />
  <path d="M 1404 7389  C 1402.32 7389  1401 7387.68  1401 7386  C 1401 7384.32  1402.32 7383  1404 7383  C 1405.68 7383  1407 7384.32  1407 7386  C 1407 7387.68  1405.68 7389  1404 7389  " fill-rule="nonzero" fill="#797979" stroke="none" />
</svg>