<?xml version="1.0" encoding="utf-8"?>
<svg version="1.1" xmlns:xlink="http://www.w3.org/1999/xlink" width="12px" height="12px" viewBox="1473 7380  12 12" xmlns="http://www.w3.org/2000/svg">
  <path d="M 1479 7380  C 1482.36 7380  1485 7382.64  1485 7386  C 1485 7389.36  1482.36 7392  1479 7392  C 1475.64 7392  1473 7389.36  1473 7386  C 1473 7382.64  1475.64 7380  1479 7380  Z " fill-rule="nonzero" fill="#ffffff" stroke="none" />
  <path d="M 1479 7380.5  C 1482.08 7380.5  1484.5 7382.92  1484.5 7386  C 1484.5 7389.08  1482.08 7391.5  1479 7391.5  C 1475.92 7391.5  1473.5 7389.08  1473.5 7386  C 1473.5 7382.92  1475.92 7380.5  1479 7380.5  Z " stroke-width="1" stroke="#797979" fill="none" />
  <path d="M 1479 7389  C 1477.32 7389  1476 7387.68  1476 7386  C 1476 7384.32  1477.32 7383  1479 7383  C 1480.68 7383  1482 7384.32  1482 7386  C 1482 7387.68  1480.68 7389  1479 7389  " fill-rule="nonzero" fill="#797979" stroke="none" />
</svg>