<?xml version="1.0" encoding="utf-8"?>
<svg version="1.1" xmlns:xlink="http://www.w3.org/1999/xlink" width="12px" height="12px" viewBox="1551 7380  12 12" xmlns="http://www.w3.org/2000/svg">
  <path d="M 1557 7380  C 1560.36 7380  1563 7382.64  1563 7386  C 1563 7389.36  1560.36 7392  1557 7392  C 1553.64 7392  1551 7389.36  1551 7386  C 1551 7382.64  1553.64 7380  1557 7380  Z " fill-rule="nonzero" fill="#f0f0f0" stroke="none" />
  <path d="M 1557 7380.5  C 1560.08 7380.5  1562.5 7382.92  1562.5 7386  C 1562.5 7389.08  1560.08 7391.5  1557 7391.5  C 1553.92 7391.5  1551.5 7389.08  1551.5 7386  C 1551.5 7382.92  1553.92 7380.5  1557 7380.5  Z " stroke-width="1" stroke="#797979" fill="none" />
  <path d="M 1557 7389  C 1555.32 7389  1554 7387.68  1554 7386  C 1554 7384.32  1555.32 7383  1557 7383  C 1558.68 7383  1560 7384.32  1560 7386  C 1560 7387.68  1558.68 7389  1557 7389  " fill-rule="nonzero" fill="#797979" stroke="none" />
</svg>