<?xml version="1.0" encoding="utf-8"?>
<svg version="1.1" xmlns:xlink="http://www.w3.org/1999/xlink" width="12px" height="12px" viewBox="1398 7418  12 12" xmlns="http://www.w3.org/2000/svg">
  <path d="M 1404 7418  C 1407.36 7418  1410 7420.64  1410 7424  C 1410 7427.36  1407.36 7430  1404 7430  C 1400.64 7430  1398 7427.36  1398 7424  C 1398 7420.64  1400.64 7418  1404 7418  Z " fill-rule="nonzero" fill="#f0f0f0" stroke="none" />
  <path d="M 1404 7418.5  C 1407.08 7418.5  1409.5 7420.92  1409.5 7424  C 1409.5 7427.08  1407.08 7429.5  1404 7429.5  C 1400.92 7429.5  1398.5 7427.08  1398.5 7424  C 1398.5 7420.92  1400.92 7418.5  1404 7418.5  Z " stroke-width="1" stroke="#797979" fill="none" />
  <path d="M 1404 7427  C 1402.32 7427  1401 7425.68  1401 7424  C 1401 7422.32  1402.32 7421  1404 7421  C 1405.68 7421  1407 7422.32  1407 7424  C 1407 7425.68  1405.68 7427  1404 7427  " fill-rule="nonzero" fill="#797979" stroke="none" />
</svg>