<?xml version="1.0" encoding="utf-8"?>
<svg version="1.1" xmlns:xlink="http://www.w3.org/1999/xlink" width="12px" height="12px" viewBox="1473 7418  12 12" xmlns="http://www.w3.org/2000/svg">
  <path d="M 1479 7418  C 1482.36 7418  1485 7420.64  1485 7424  C 1485 7427.36  1482.36 7430  1479 7430  C 1475.64 7430  1473 7427.36  1473 7424  C 1473 7420.64  1475.64 7418  1479 7418  Z " fill-rule="nonzero" fill="#ffffff" stroke="none" />
  <path d="M 1479 7418.5  C 1482.08 7418.5  1484.5 7420.92  1484.5 7424  C 1484.5 7427.08  1482.08 7429.5  1479 7429.5  C 1475.92 7429.5  1473.5 7427.08  1473.5 7424  C 1473.5 7420.92  1475.92 7418.5  1479 7418.5  Z " stroke-width="1" stroke="#797979" fill="none" />
  <path d="M 1479 7427  C 1477.32 7427  1476 7425.68  1476 7424  C 1476 7422.32  1477.32 7421  1479 7421  C 1480.68 7421  1482 7422.32  1482 7424  C 1482 7425.68  1480.68 7427  1479 7427  " fill-rule="nonzero" fill="#797979" stroke="none" />
</svg>