<?xml version="1.0" encoding="utf-8"?>
<svg version="1.1" xmlns:xlink="http://www.w3.org/1999/xlink" width="12px" height="12px" viewBox="1551 7418  12 12" xmlns="http://www.w3.org/2000/svg">
  <path d="M 1557 7418  C 1560.36 7418  1563 7420.64  1563 7424  C 1563 7427.36  1560.36 7430  1557 7430  C 1553.64 7430  1551 7427.36  1551 7424  C 1551 7420.64  1553.64 7418  1557 7418  Z " fill-rule="nonzero" fill="#f0f0f0" stroke="none" />
  <path d="M 1557 7418.5  C 1560.08 7418.5  1562.5 7420.92  1562.5 7424  C 1562.5 7427.08  1560.08 7429.5  1557 7429.5  C 1553.92 7429.5  1551.5 7427.08  1551.5 7424  C 1551.5 7420.92  1553.92 7418.5  1557 7418.5  Z " stroke-width="1" stroke="#797979" fill="none" />
  <path d="M 1557 7427  C 1555.32 7427  1554 7425.68  1554 7424  C 1554 7422.32  1555.32 7421  1557 7421  C 1558.68 7421  1560 7422.32  1560 7424  C 1560 7425.68  1558.68 7427  1557 7427  " fill-rule="nonzero" fill="#797979" stroke="none" />
</svg>