<?xml version="1.0" encoding="utf-8"?>
<svg version="1.1" xmlns:xlink="http://www.w3.org/1999/xlink" width="12px" height="12px" viewBox="1398 7456  12 12" xmlns="http://www.w3.org/2000/svg">
  <path d="M 1404 7456  C 1407.36 7456  1410 7458.64  1410 7462  C 1410 7465.36  1407.36 7468  1404 7468  C 1400.64 7468  1398 7465.36  1398 7462  C 1398 7458.64  1400.64 7456  1404 7456  Z " fill-rule="nonzero" fill="#ffffff" stroke="none" />
  <path d="M 1404 7456.5  C 1407.08 7456.5  1409.5 7458.92  1409.5 7462  C 1409.5 7465.08  1407.08 7467.5  1404 7467.5  C 1400.92 7467.5  1398.5 7465.08  1398.5 7462  C 1398.5 7458.92  1400.92 7456.5  1404 7456.5  Z " stroke-width="1" stroke="#797979" fill="none" />
  <path d="M 1404 7465  C 1402.32 7465  1401 7463.68  1401 7462  C 1401 7460.32  1402.32 7459  1404 7459  C 1405.68 7459  1407 7460.32  1407 7462  C 1407 7463.68  1405.68 7465  1404 7465  " fill-rule="nonzero" fill="#797979" stroke="none" />
</svg>