<?xml version="1.0" encoding="utf-8"?>
<svg version="1.1" xmlns:xlink="http://www.w3.org/1999/xlink" width="12px" height="12px" viewBox="1473 8392  12 12" xmlns="http://www.w3.org/2000/svg">
  <path d="M 1479 8392  C 1482.36 8392  1485 8394.64  1485 8398  C 1485 8401.36  1482.36 8404  1479 8404  C 1475.64 8404  1473 8401.36  1473 8398  C 1473 8394.64  1475.64 8392  1479 8392  Z " fill-rule="nonzero" fill="#f0f0f0" stroke="none" />
  <path d="M 1479 8392.5  C 1482.08 8392.5  1484.5 8394.92  1484.5 8398  C 1484.5 8401.08  1482.08 8403.5  1479 8403.5  C 1475.92 8403.5  1473.5 8401.08  1473.5 8398  C 1473.5 8394.92  1475.92 8392.5  1479 8392.5  Z " stroke-width="1" stroke="#797979" fill="none" />
  <path d="M 1479 8401  C 1477.32 8401  1476 8399.68  1476 8398  C 1476 8396.32  1477.32 8395  1479 8395  C 1480.68 8395  1482 8396.32  1482 8398  C 1482 8399.68  1480.68 8401  1479 8401  " fill-rule="nonzero" fill="#797979" stroke="none" />
</svg>