<?xml version="1.0" encoding="utf-8"?>
<svg version="1.1" xmlns:xlink="http://www.w3.org/1999/xlink" width="12px" height="12px" viewBox="1473 8430  12 12" xmlns="http://www.w3.org/2000/svg">
  <path d="M 1479 8430  C 1482.36 8430  1485 8432.64  1485 8436  C 1485 8439.36  1482.36 8442  1479 8442  C 1475.64 8442  1473 8439.36  1473 8436  C 1473 8432.64  1475.64 8430  1479 8430  Z " fill-rule="nonzero" fill="#f0f0f0" stroke="none" />
  <path d="M 1479 8430.5  C 1482.08 8430.5  1484.5 8432.92  1484.5 8436  C 1484.5 8439.08  1482.08 8441.5  1479 8441.5  C 1475.92 8441.5  1473.5 8439.08  1473.5 8436  C 1473.5 8432.92  1475.92 8430.5  1479 8430.5  Z " stroke-width="1" stroke="#797979" fill="none" />
  <path d="M 1479 8439  C 1477.32 8439  1476 8437.68  1476 8436  C 1476 8434.32  1477.32 8433  1479 8433  C 1480.68 8433  1482 8434.32  1482 8436  C 1482 8437.68  1480.68 8439  1479 8439  " fill-rule="nonzero" fill="#797979" stroke="none" />
</svg>