<?xml version="1.0" encoding="utf-8"?>
<svg version="1.1" xmlns:xlink="http://www.w3.org/1999/xlink" width="12px" height="12px" viewBox="1551 8430  12 12" xmlns="http://www.w3.org/2000/svg">
  <path d="M 1557 8430  C 1560.36 8430  1563 8432.64  1563 8436  C 1563 8439.36  1560.36 8442  1557 8442  C 1553.64 8442  1551 8439.36  1551 8436  C 1551 8432.64  1553.64 8430  1557 8430  Z " fill-rule="nonzero" fill="#f0f0f0" stroke="none" />
  <path d="M 1557 8430.5  C 1560.08 8430.5  1562.5 8432.92  1562.5 8436  C 1562.5 8439.08  1560.08 8441.5  1557 8441.5  C 1553.92 8441.5  1551.5 8439.08  1551.5 8436  C 1551.5 8432.92  1553.92 8430.5  1557 8430.5  Z " stroke-width="1" stroke="#797979" fill="none" />
  <path d="M 1557 8439  C 1555.32 8439  1554 8437.68  1554 8436  C 1554 8434.32  1555.32 8433  1557 8433  C 1558.68 8433  1560 8434.32  1560 8436  C 1560 8437.68  1558.68 8439  1557 8439  " fill-rule="nonzero" fill="#797979" stroke="none" />
</svg>