<?xml version="1.0" encoding="utf-8"?>
<svg version="1.1" xmlns:xlink="http://www.w3.org/1999/xlink" width="12px" height="12px" viewBox="1398 8468  12 12" xmlns="http://www.w3.org/2000/svg">
  <path d="M 1404 8468  C 1407.36 8468  1410 8470.64  1410 8474  C 1410 8477.36  1407.36 8480  1404 8480  C 1400.64 8480  1398 8477.36  1398 8474  C 1398 8470.64  1400.64 8468  1404 8468  Z " fill-rule="nonzero" fill="#ffffff" stroke="none" />
  <path d="M 1404 8468.5  C 1407.08 8468.5  1409.5 8470.92  1409.5 8474  C 1409.5 8477.08  1407.08 8479.5  1404 8479.5  C 1400.92 8479.5  1398.5 8477.08  1398.5 8474  C 1398.5 8470.92  1400.92 8468.5  1404 8468.5  Z " stroke-width="1" stroke="#797979" fill="none" />
  <path d="M 1404 8477  C 1402.32 8477  1401 8475.68  1401 8474  C 1401 8472.32  1402.32 8471  1404 8471  C 1405.68 8471  1407 8472.32  1407 8474  C 1407 8475.68  1405.68 8477  1404 8477  " fill-rule="nonzero" fill="#797979" stroke="none" />
</svg>