<?xml version="1.0" encoding="utf-8"?>
<svg version="1.1" xmlns:xlink="http://www.w3.org/1999/xlink" width="12px" height="12px" viewBox="1473 8468  12 12" xmlns="http://www.w3.org/2000/svg">
  <path d="M 1479 8468  C 1482.36 8468  1485 8470.64  1485 8474  C 1485 8477.36  1482.36 8480  1479 8480  C 1475.64 8480  1473 8477.36  1473 8474  C 1473 8470.64  1475.64 8468  1479 8468  Z " fill-rule="nonzero" fill="#f0f0f0" stroke="none" />
  <path d="M 1479 8468.5  C 1482.08 8468.5  1484.5 8470.92  1484.5 8474  C 1484.5 8477.08  1482.08 8479.5  1479 8479.5  C 1475.92 8479.5  1473.5 8477.08  1473.5 8474  C 1473.5 8470.92  1475.92 8468.5  1479 8468.5  Z " stroke-width="1" stroke="#797979" fill="none" />
  <path d="M 1479 8477  C 1477.32 8477  1476 8475.68  1476 8474  C 1476 8472.32  1477.32 8471  1479 8471  C 1480.68 8471  1482 8472.32  1482 8474  C 1482 8475.68  1480.68 8477  1479 8477  " fill-rule="nonzero" fill="#797979" stroke="none" />
</svg>