<?xml version="1.0" encoding="utf-8"?>
<svg version="1.1" xmlns:xlink="http://www.w3.org/1999/xlink" width="12px" height="12px" viewBox="1551 8468  12 12" xmlns="http://www.w3.org/2000/svg">
  <path d="M 1557 8468  C 1560.36 8468  1563 8470.64  1563 8474  C 1563 8477.36  1560.36 8480  1557 8480  C 1553.64 8480  1551 8477.36  1551 8474  C 1551 8470.64  1553.64 8468  1557 8468  Z " fill-rule="nonzero" fill="#ffffff" stroke="none" />
  <path d="M 1557 8468.5  C 1560.08 8468.5  1562.5 8470.92  1562.5 8474  C 1562.5 8477.08  1560.08 8479.5  1557 8479.5  C 1553.92 8479.5  1551.5 8477.08  1551.5 8474  C 1551.5 8470.92  1553.92 8468.5  1557 8468.5  Z " stroke-width="1" stroke="#797979" fill="none" />
  <path d="M 1557 8477  C 1555.32 8477  1554 8475.68  1554 8474  C 1554 8472.32  1555.32 8471  1557 8471  C 1558.68 8471  1560 8472.32  1560 8474  C 1560 8475.68  1558.68 8477  1557 8477  " fill-rule="nonzero" fill="#797979" stroke="none" />
</svg>