<?xml version="1.0" encoding="utf-8"?>
<svg version="1.1" xmlns:xlink="http://www.w3.org/1999/xlink" width="12px" height="12px" viewBox="1398 8506  12 12" xmlns="http://www.w3.org/2000/svg">
  <path d="M 1404 8506  C 1407.36 8506  1410 8508.64  1410 8512  C 1410 8515.36  1407.36 8518  1404 8518  C 1400.64 8518  1398 8515.36  1398 8512  C 1398 8508.64  1400.64 8506  1404 8506  Z " fill-rule="nonzero" fill="#f0f0f0" stroke="none" />
  <path d="M 1404 8506.5  C 1407.08 8506.5  1409.5 8508.92  1409.5 8512  C 1409.5 8515.08  1407.08 8517.5  1404 8517.5  C 1400.92 8517.5  1398.5 8515.08  1398.5 8512  C 1398.5 8508.92  1400.92 8506.5  1404 8506.5  Z " stroke-width="1" stroke="#797979" fill="none" />
  <path d="M 1404 8515  C 1402.32 8515  1401 8513.68  1401 8512  C 1401 8510.32  1402.32 8509  1404 8509  C 1405.68 8509  1407 8510.32  1407 8512  C 1407 8513.68  1405.68 8515  1404 8515  " fill-rule="nonzero" fill="#797979" stroke="none" />
</svg>