<?xml version="1.0" encoding="utf-8"?>
<svg version="1.1" xmlns:xlink="http://www.w3.org/1999/xlink" width="12px" height="12px" viewBox="1551 8506  12 12" xmlns="http://www.w3.org/2000/svg">
  <path d="M 1557 8506  C 1560.36 8506  1563 8508.64  1563 8512  C 1563 8515.36  1560.36 8518  1557 8518  C 1553.64 8518  1551 8515.36  1551 8512  C 1551 8508.64  1553.64 8506  1557 8506  Z " fill-rule="nonzero" fill="#f0f0f0" stroke="none" />
  <path d="M 1557 8506.5  C 1560.08 8506.5  1562.5 8508.92  1562.5 8512  C 1562.5 8515.08  1560.08 8517.5  1557 8517.5  C 1553.92 8517.5  1551.5 8515.08  1551.5 8512  C 1551.5 8508.92  1553.92 8506.5  1557 8506.5  Z " stroke-width="1" stroke="#797979" fill="none" />
  <path d="M 1557 8515  C 1555.32 8515  1554 8513.68  1554 8512  C 1554 8510.32  1555.32 8509  1557 8509  C 1558.68 8509  1560 8510.32  1560 8512  C 1560 8513.68  1558.68 8515  1557 8515  " fill-rule="nonzero" fill="#797979" stroke="none" />
</svg>