<?xml version="1.0" encoding="utf-8"?>
<svg version="1.1" xmlns:xlink="http://www.w3.org/1999/xlink" width="20px" height="15px" xmlns="http://www.w3.org/2000/svg">
  <g transform="matrix(1 0 0 1 -330 -8652 )">
    <path d="M 19.5647321428571 0.43359375  C 19.8549107142857 0.566406249999999  20 0.796875  20 1.125  L 20 13.875  C 20 14.203125  19.8549107142857 14.43359375  19.5647321428571 14.56640625  C 19.468005952381 14.60546875  19.375 14.625  19.2857142857143 14.625  C 19.0848214285714 14.625  18.9174107142857 14.55078125  18.7834821428571 14.40234375  L 14.2857142857143 9.6796875  L 14.2857142857143 11.625  C 14.2857142857143 12.5546875  13.9713541666667 13.349609375  13.3426339285714 14.009765625  C 12.7139136904762 14.669921875  11.9568452380952 15  11.0714285714286 15  L 3.21428571428571 15  C 2.32886904761905 15  1.5718005952381 14.669921875  0.943080357142857 14.009765625  C 0.314360119047619 13.349609375  0 12.5546875  0 11.625  L 0 3.375  C 0 2.4453125  0.314360119047619 1.650390625  0.943080357142857 0.990234375  C 1.5718005952381 0.330078124999998  2.32886904761905 0  3.21428571428571 0  L 11.0714285714286 0  C 11.9568452380952 0  12.7139136904762 0.330078124999998  13.3426339285714 0.990234375  C 13.9713541666667 1.650390625  14.2857142857143 2.4453125  14.2857142857143 3.375  L 14.2857142857143 5.30859375  L 18.7834821428571 0.597656249999999  C 18.9174107142857 0.449218749999999  19.0848214285714 0.375  19.2857142857143 0.375  C 19.375 0.375  19.468005952381 0.394531249999998  19.5647321428571 0.43359375  Z " fill-rule="nonzero" fill="#000000" stroke="none" transform="matrix(1 0 0 1 330 8652 )" />
  </g>
</svg>