<?xml version="1.0" encoding="utf-8"?>
<svg version="1.1" xmlns:xlink="http://www.w3.org/1999/xlink" width="13px" height="20px" xmlns="http://www.w3.org/2000/svg">
  <g transform="matrix(1 0 0 1 -449 -8649 )">
    <path d="M 12.6783854166667 0.3125  C 12.8927951388889 0.52083333333333  13 0.76754385964912  13 1.05263157894737  L 13 18.9473684210526  C 13 19.2324561403509  12.8927951388889 19.4791666666667  12.6783854166667 19.6875  C 12.4639756944444 19.8958333333333  12.2100694444444 20  11.9166666666667 20  C 11.6232638888889 20  11.3693576388889 19.8958333333333  11.1549479166667 19.6875  L 5.51822916666667 14.2105263157895  L 1.08333333333333 14.2105263157895  C 0.789930555555556 14.2105263157895  0.536024305555556 14.1063596491228  0.321614583333333 13.8980263157895  C 0.107204861111111 13.6896929824561  0 13.4429824561404  0 13.1578947368421  L 0 6.84210526315789  C 0 6.55701754385965  0.107204861111111 6.31030701754386  0.321614583333333 6.10197368421053  C 0.536024305555556 5.89364035087719  0.789930555555556 5.78947368421053  1.08333333333333 5.78947368421053  L 5.51822916666667 5.78947368421053  L 11.1549479166667 0.3125  C 11.3693576388889 0.104166666666665  11.6232638888889 0  11.9166666666667 0  C 12.2100694444444 0  12.4639756944444 0.104166666666665  12.6783854166667 0.3125  Z " fill-rule="nonzero" fill="#000000" stroke="none" transform="matrix(1 0 0 1 449 8649 )" />
  </g>
</svg>