<?xml version="1.0" encoding="utf-8"?>
<svg version="1.1" xmlns:xlink="http://www.w3.org/1999/xlink" width="16px" height="14px" xmlns="http://www.w3.org/2000/svg">
  <g transform="matrix(1 0 0 1 -1183 -93 )">
    <path d="M 15.8020833333333 11.4078125  C 15.9340277777778 11.5463541666667  16 11.7104166666667  16 11.9  L 16 13.3  C 16 13.4895833333333  15.9340277777778 13.6536458333333  15.8020833333333 13.7921875  C 15.6701388888889 13.9307291666667  15.5138888888889 14  15.3333333333333 14  L 0.666666666666667 14  C 0.486111111111111 14  0.329861111111111 13.9307291666667  0.197916666666667 13.7921875  C 0.0659722222222222 13.6536458333333  0 13.4895833333333  0 13.3  L 0 11.9  C 0 11.7104166666667  0.0659722222222222 11.5463541666667  0.197916666666667 11.4078125  C 0.329861111111111 11.2692708333333  0.486111111111111 11.2  0.666666666666667 11  L 15.3333333333333 11  C 15.5138888888889 11.2  15.6701388888889 11.2692708333333  15.8020833333333 11.4078125  Z M 15.8020833333333 5.8078125  C 15.9340277777778 5.94635416666667  16 6.11041666666667  16 6.3  L 16 7.7  C 16 7.88958333333333  15.9340277777778 8.05364583333333  15.8020833333333 8.1921875  C 15.6701388888889 8.33072916666667  15.5138888888889 8.4  15.3333333333333 8.4  L 0.666666666666667 8.4  C 0.486111111111111 8.4  0.329861111111111 8.33072916666667  0.197916666666667 8.1921875  C 0.0659722222222222 8.05364583333333  0 7.88958333333333  0 7.7  L 0 6.3  C 0 6.11041666666667  0.0659722222222222 5.94635416666667  0.197916666666667 5.8078125  C 0.329861111111111 5.66927083333333  0.486111111111111 5.6  0.666666666666667 5.6  L 15.3333333333333 5.6  C 15.5138888888889 5.6  15.6701388888889 5.66927083333333  15.8020833333333 5.8078125  Z M 15.8020833333333 0.207812500000001  C 15.9340277777778 0.346354166666666  16 0.510416666666666  16 0.700000000000001  L 16 2.1  C 16 2.28958333333333  15.9340277777778 2.45364583333333  15.8020833333333 2.5921875  C 15.6701388888889 2.73072916666667  15.5138888888889 2.8  15.3333333333333 3  L 0.666666666666667 3  C 0.486111111111111 2.8  0.329861111111111 2.73072916666667  0.197916666666667 2.5921875  C 0.0659722222222222 2.45364583333333  0 2.28958333333333  0 2.1  L 0 0.700000000000001  C 0 0.510416666666666  0.0659722222222222 0.346354166666666  0.197916666666667 0.207812500000001  C 0.329861111111111 0.0692708333333325  0.486111111111111 0  0.666666666666667 0  L 15.3333333333333 0  C 15.5138888888889 0  15.6701388888889 0.0692708333333325  15.8020833333333 0.207812500000001  Z " fill-rule="nonzero" fill="#aaaaaa" stroke="none" transform="matrix(1 0 0 1 1183 93 )" />
  </g>
</svg>