<?xml version="1.0" encoding="utf-8"?>
<svg version="1.1" xmlns:xlink="http://www.w3.org/1999/xlink" width="15px" height="15px" xmlns="http://www.w3.org/2000/svg">
  <g transform="matrix(1 0 0 1 -326 -11528 )">
    <path d="M 333.5 11528  C 337.7 11528  341 11531.3  341 11535.5  C 341 11539.7  337.7 11543  333.5 11543  C 329.3 11543  326 11539.7  326 11535.5  C 326 11531.3  329.3 11528  333.5 11528  Z " fill-rule="nonzero" fill="#d9001b" stroke="none" />
    <path d="M 333.5 11528.5  C 337.42 11528.5  340.5 11531.58  340.5 11535.5  C 340.5 11539.42  337.42 11542.5  333.5 11542.5  C 329.58 11542.5  326.5 11539.42  326.5 11535.5  C 326.5 11531.58  329.58 11528.5  333.5 11528.5  Z " stroke-width="1" stroke="#797979" fill="none" />
  </g>
</svg>