<?xml version="1.0" encoding="utf-8"?>
<svg version="1.1" xmlns:xlink="http://www.w3.org/1999/xlink" width="9px" height="4px" xmlns="http://www.w3.org/2000/svg">
  <g transform="matrix(1 0 0 1 -167 -1437 )">
    <path d="M 8.87308455882351 0.0858181818181549  C 8.81016176470586 0.0336818181818614  8.72305147058823 0.00141818181819531  8.62678676470591 0.00141818181819531  C 8.53052205882352 0.00141818181819531  8.44342279411765 0.0336818181818614  8.38049999999999 0.0858090909090663  L 4.52408823529414 3.26442727272729  L 0.667687499999975 0.0858181818181549  C 0.604764705882385 0.0336818181818614  0.517654411764696 0.00141818181819531  0.421389705882373 0.00141818181819531  C 0.325125000000018 0.00141818181819531  0.238025735294112 0.0336818181818614  0.175102941176458 0.0858090909090663  C 0.11182720588236 0.137681818181818  0.0726948529411935 0.209481818181843  0.0726948529411935 0.288836363636392  C 0.0726948529411935 0.368163636363619  0.111838235294112 0.439972727272703  0.175080882352955 0.491836363636367  L 4.27779044117647 3.87346363636365  C 4.41432352941179 3.98600000000002  4.6338529411765 3.98600000000002  4.77037499999999 3.87346363636365  L 8.87307352941176 0.491845454545455  C 9.00960661764707 0.379309090909061  9.00960661764707 0.198363636363638  8.87307352941176 0.0858363636363322  Z " fill-rule="nonzero" fill="#409eff" stroke="none" transform="matrix(1 0 0 1 167 1437 )" />
  </g>
</svg>