<?xml version="1.0" encoding="utf-8"?>
<svg version="1.1" xmlns:xlink="http://www.w3.org/1999/xlink" width="18px" height="18px" xmlns="http://www.w3.org/2000/svg">
  <g transform="matrix(1 0 0 1 -394 -381 )">
    <path d="M 17.6615733552632 17.6963954734514  C 17.9244351315789 17.4512570376106  17.9408955394737 17.0379794269911  17.6983113947368 16.772404300885  L 12.9374331513158 11.5691367942478  C 13.8629732171053 10.3558329756637  14.413922625 8.83742543362837  14.413922625 7.19169096902658  C 14.413922625 3.22660584955747  11.2160166907894 0.000420252212393279  7.28573323026313 0.000420252212393279  C 3.35544976973688 0.000420252212393279  0.157523624999953 3.22660584955747  0.157523624999953 7.19169096902658  C 0.157523624999953 11.1567760884956  3.35542955921051 14.3829616858407  7.28571301973687 14.3829616858407  C 9.11760615789473 14.3829616858407  10.7903078486842 13.6820014646017  12.0543266447368 12.5321064092921  L 16.7456671776316 17.6593730575221  C 16.8734929342106 17.7989864336282  17.0477310197368 17.869628528761  17.2219690855263 17.869628528761  C 17.3793428092105 17.869628528761  17.5371204671052 17.8121694424779  17.6615733552632 17.6963954734514  Z M 13.1178918552631 7.19169096902658  C 13.1178918552631 10.4361942146018  10.5017759013158 13.0754616371681  7.2857332105263 13.0754616371681  C 4.06969051973681 13.0754616371681  1.45357456578944 10.4361942146018  1.45357456578944 7.19169096902658  C 1.45357456578944 3.94718772345141  4.0696905394737 1.30792030088492  7.2857332105263 1.30792030088492  C 10.501775881579 1.30792030088492  13.1178918552631 3.94718772345141  13.1178918552631 7.19169096902658  Z " fill-rule="nonzero" fill="#c0c4cc" stroke="none" transform="matrix(1 0 0 1 394 381 )" />
  </g>
</svg>