<?xml version="1.0" encoding="utf-8"?>
<svg version="1.1" xmlns:xlink="http://www.w3.org/1999/xlink" width="5px" height="4px" xmlns="http://www.w3.org/2000/svg">
  <g transform="matrix(1 0 0 1 -1610 -560 )">
    <path d="M 4.92949142156862 0.0858181818181549  C 4.89453431372548 0.0336818181818614  4.84613970588235 0.00141818181819531  4.7926593137255 0.00141818181819531  C 4.73917892156862 0.00141818181819531  4.69079044117647 0.0336818181818614  4.65583333333333 0.0858090909090663  L 2.51338235294119 3.26442727272729  L 0.370937499999986 0.0858181818181549  C 0.33598039215688 0.0336818181818614  0.28758578431372 0.00141818181819531  0.234105392156874 0.00141818181819531  C 0.18062500000001 0.00141818181819531  0.13223651960784 0.0336818181818614  0.0972794117646991 0.0858090909090663  C 0.0621262254902 0.137681818181818  0.0403860294117742 0.209481818181843  0.0403860294117742 0.288836363636392  C 0.0403860294117742 0.368163636363619  0.0621323529411733 0.439972727272703  0.0972671568627526 0.491836363636367  L 2.37655024509804 3.87346363636365  C 2.45240196078433 3.98600000000002  2.57436274509805 3.98600000000002  2.65020833333333 3.87346363636365  L 4.92948529411764 0.491845454545455  C 5.00533700980393 0.379309090909061  5.00533700980393 0.198363636363638  4.92948529411764 0.0858363636363322  Z " fill-rule="nonzero" fill="#ffffff" stroke="none" fill-opacity="0" transform="matrix(1 0 0 1 1610 560 )" />
  </g>
</svg>