<?xml version="1.0" encoding="utf-8"?>
<svg version="1.1" xmlns:xlink="http://www.w3.org/1999/xlink" width="18px" height="18px" xmlns="http://www.w3.org/2000/svg">
  <g transform="matrix(1 0 0 1 -991 -381 )">
    <path d="M 18 1.8825517241379  L 14.1138947368421 1.8825517241379  L 14.1138947368421 0.716896551724176  C 14.1138947368421 0.374275862068998  13.8315789473684 0.0962068965517346  13.4823157894737 0.0962068965517346  C 13.1330526315789 0.0962068965517346  12.8507368421052 0.374275862068998  12.8507368421052 0.716896551724176  L 12.8507368421052 1.8825517241379  L 5.27178947368421 1.8825517241379  L 5.27178947368421 0.716896551724176  C 5.27178947368421 0.374275862068998  4.98884210526316 0.0962068965517346  4.6402105263158 0.0962068965517346  C 4.29157894736844 0.0962068965517346  4.00863157894739 0.374275862068998  4.00863157894739 0.716896551724176  L 4.00863157894739 1.8825517241379  L 0 1.8825517241379  L 0 18  L 18 18  L 18 1.8825517241379  Z M 1.2978947368421 3.1413103448275  L 4.00863157894739 3.1413103448275  L 4.00863157894739 4.44165517241379  C 4.00863157894739 4.78427586206897  4.29157894736844 5.06234482758623  4.6402105263158 5.06234482758623  C 4.98884210526316 5.06234482758623  5.27178947368421 4.78427586206897  5.27178947368421 4.44165517241379  L 5.27178947368421 3.1413103448275  L 12.8507368421052 3.1413103448275  L 12.8507368421052 4.44165517241379  C 12.8507368421052 4.78427586206897  13.1330526315789 5.06234482758623  13.4823157894737 5.06234482758623  C 13.8315789473684 5.06234482758623  14.1138947368421 4.78427586206897  14.1138947368421 4.44165517241379  L 14.1138947368421 3.1413103448275  L 16.7021052631579 3.1413103448275  L 16.7021052631579 5.06234482758623  L 13.4823157894737 5.06234482758623  L 4.6402105263158 5.06234482758623  L 1.2978947368421 5.06234482758623  L 1.2978947368421 3.1413103448275  Z M 16.7021052631579 16.6456551724137  L 1.2978947368421 16.6456551724137  L 1.2978947368421 6.303724137931  L 16.7021052631579 6.303724137931  L 16.7021052631579 16.6456551724137  Z M 3.12252631578949 10.6572413793103  L 3.12252631578949 8.25765517241382  L 5.56799999999998 8.25765517241382  L 5.56799999999998 10.6572413793103  L 3.12252631578949 10.6572413793103  Z M 7.63642105263156 10.6572413793103  L 7.63642105263156 8.25765517241382  L 10.0818947368421 8.25765517241382  L 10.0818947368421 10.6572413793103  L 7.63642105263156 10.6572413793103  Z M 12.150947368421 10.6572413793103  L 12.150947368421 8.25765517241382  L 14.5964210526316 8.25765517241382  L 14.5964210526316 10.6572413793103  L 12.150947368421 10.6572413793103  Z M 3.12252631578949 14.8971724137931  L 3.12252631578949 12.4975862068966  L 5.56799999999998 12.4975862068966  L 5.56799999999998 14.8971724137931  L 3.12252631578949 14.8971724137931  Z M 7.63642105263156 14.8971724137931  L 7.63642105263156 12.4975862068966  L 10.0818947368421 12.4975862068966  L 10.0818947368421 14.8971724137931  L 7.63642105263156 14.8971724137931  Z M 12.150947368421 14.8971724137931  L 12.150947368421 12.4975862068966  L 14.5964210526316 12.4975862068966  L 14.5964210526316 14.8971724137931  L 12.150947368421 14.8971724137931  Z " fill-rule="nonzero" fill="#c0c4cc" stroke="none" transform="matrix(1 0 0 1 991 381 )" />
  </g>
</svg>