<?xml version="1.0" encoding="utf-8"?>
<svg version="1.1" xmlns:xlink="http://www.w3.org/1999/xlink" width="17px" height="18px" xmlns="http://www.w3.org/2000/svg">
  <g transform="matrix(1 0 0 1 -1336 -381 )">
    <path d="M 16.6803748355263 17.6963954734514  C 16.9286331798246 17.4512570376106  16.944179120614 17.0379794269911  16.715071872807 16.772404300885  L 12.2186868651316 11.5691367942478  C 13.0928080383772 10.3558329756637  13.6131491458333 8.83742543362837  13.6131491458333 7.19169096902658  C 13.6131491458333 3.22660584955747  10.5929046524123 0.000420252212393279  6.88097027302629 0.000420252212393279  C 3.16903589364039 0.000420252212393279  0.148772312499956 3.22660584955747  0.148772312499956 7.19169096902658  C 0.148772312499956 11.1567760884956  3.16901680592103 14.3829616858407  6.88095118530705 14.3829616858407  C 8.61107248245613 14.3829616858407  10.190846301535 13.6820014646017  11.3846418311403 12.5321064092921  L 15.8153523344298 17.6593730575221  C 15.9360766600878 17.7989864336282  16.1006348519737 17.869628528761  16.2651930252193 17.869628528761  C 16.4138237642544 17.869628528761  16.5628359967105 17.8121694424779  16.6803748355263 17.6963954734514  Z M 12.3891200855263 7.19169096902658  C 12.3891200855263 10.4361942146018  9.91834390679825 13.0754616371681  6.88097025438595 13.0754616371681  C 3.84359660197365 13.0754616371681  1.37282042324558 10.4361942146018  1.37282042324558 7.19169096902658  C 1.37282042324558 3.94718772345141  3.84359662061405 1.30792030088492  6.88097025438595 1.30792030088492  C 9.91834388815791 1.30792030088492  12.3891200855263 3.94718772345141  12.3891200855263 7.19169096902658  Z " fill-rule="nonzero" fill="#c0c4cc" stroke="none" transform="matrix(1 0 0 1 1336 381 )" />
  </g>
</svg>